<?xml version="1.0" encoding="UTF-8"?>
<svg version="1.1" xmlns="http://www.w3.org/2000/svg" width="650" height="350">
<path d="M0 0 C1.18464844 -0.01417969 2.36929688 -0.02835937 3.58984375 -0.04296875 C7.0625 0.1875 7.0625 0.1875 13.0625 2.1875 C13.0625 9.7775 13.0625 17.3675 13.0625 25.1875 C8.7725 25.1875 4.4825 25.1875 0.0625 25.1875 C0.0625 25.8475 0.0625 26.5075 0.0625 27.1875 C-1.5875 27.5175 -3.2375 27.8475 -4.9375 28.1875 C-6.34626405 32.41379214 -5.9375 35.29653751 -5.9375 40.1875 C0.9925 40.1875 7.9225 40.1875 15.0625 40.1875 C15.3925 38.8675 15.7225 37.5475 16.0625 36.1875 C16.3925 36.1875 16.7225 36.1875 17.0625 36.1875 C17.23265625 35.2696875 17.4028125 34.351875 17.578125 33.40625 C18.97200114 26.34789851 20.47954631 20.42877417 24.0625 14.1875 C24.39378906 13.47851562 24.72507812 12.76953125 25.06640625 12.0390625 C26.35233328 9.64875109 27.63844105 9.32823362 30.0625 8.1875 C30.7225 7.506875 31.3825 6.82625 32.0625 6.125 C34.20496116 4.04949076 35.22039107 3.7375856 38.0625 3.1875 C39.0525 2.5275 40.0425 1.8675 41.0625 1.1875 C44.86403507 -0.19883963 48.82276721 0.07597682 52.8125 0.125 C53.50988281 0.12951172 54.20726562 0.13402344 54.92578125 0.13867188 C56.63805803 0.1503998 58.35029033 0.16833347 60.0625 0.1875 C60.0625 0.8475 60.0625 1.5075 60.0625 2.1875 C62.3725 2.8475 64.6825 3.5075 67.0625 4.1875 C67.0625 11.1175 67.0625 18.0475 67.0625 25.1875 C62.7725 25.1875 58.4825 25.1875 54.0625 25.1875 C54.0625 25.8475 54.0625 26.5075 54.0625 27.1875 C53.11375 27.6 52.165 28.0125 51.1875 28.4375 C48.05533376 30.1915131 47.19749394 30.89601757 46.0625 34.1875 C46.3925 34.1875 46.7225 34.1875 47.0625 34.1875 C47.0625 36.1675 47.0625 38.1475 47.0625 40.1875 C53.3325 40.1875 59.6025 40.1875 66.0625 40.1875 C67.27695591 42.61641182 67.19174198 44.19469443 67.1953125 46.90625 C67.19660156 47.83824219 67.19789063 48.77023438 67.19921875 49.73046875 C67.19535156 50.70628906 67.19148438 51.68210938 67.1875 52.6875 C67.19136719 53.66332031 67.19523437 54.63914063 67.19921875 55.64453125 C67.19792969 56.57652344 67.19664062 57.50851563 67.1953125 58.46875 C67.19418457 59.32533203 67.19305664 60.18191406 67.19189453 61.06445312 C67.0625 63.1875 67.0625 63.1875 66.0625 65.1875 C59.7925 65.1875 53.5225 65.1875 47.0625 65.1875 C47.0625 87.9575 47.0625 110.7275 47.0625 134.1875 C46.4025 134.1875 45.7425 134.1875 45.0625 134.1875 C44.84335937 135.033125 44.62421875 135.87875 44.3984375 136.75 C42.59941337 143.18553346 40.83349341 148.35894077 36.48828125 153.48046875 C34.84546902 155.33976218 34.84546902 155.33976218 33.25 158.4375 C30.15284884 162.33106146 26.79314896 163.77429993 22.0625 165.1875 C17.85619897 165.63762204 13.72386295 165.56989353 9.5 165.4375 C8.39591797 165.41945312 7.29183594 165.40140625 6.15429688 165.3828125 C3.45610019 165.33609048 0.75977965 165.2706014 -1.9375 165.1875 C-4.4867991 157.53960271 -2.43529947 148.90608705 -0.9375 141.1875 C-0.6075 140.5275 -0.2775 139.8675 0.0625 139.1875 C0.72636719 139.21070313 1.39023437 139.23390625 2.07421875 139.2578125 C2.95722656 139.27585938 3.84023438 139.29390625 4.75 139.3125 C5.62011719 139.33570313 6.49023438 139.35890625 7.38671875 139.3828125 C10.54247765 139.28822822 10.54247765 139.28822822 15.0625 137.1875 C15.0625 113.4275 15.0625 89.6675 15.0625 65.1875 C8.1325 65.1875 1.2025 65.1875 -5.9375 65.1875 C-5.9375 86.9675 -5.9375 108.7475 -5.9375 131.1875 C-6.5975 131.1875 -7.2575 131.1875 -7.9375 131.1875 C-8.01226562 131.77015625 -8.08703125 132.3528125 -8.1640625 132.953125 C-9.85820197 143.5165829 -14.73554156 154.09391432 -22.9375 161.1875 C-29.92648662 165.34271684 -35.95024967 166.36761179 -44.0625 166.375 C-44.77792969 166.38724609 -45.49335938 166.39949219 -46.23046875 166.41210938 C-50.01570209 166.42272218 -51.71117012 166.33838659 -54.9375 164.1875 C-57.06851917 161.01021972 -57.06638791 158.92356222 -56.4765625 155.203125 C-56.33476562 154.26855469 -56.19296875 153.33398438 -56.046875 152.37109375 C-55.88703125 151.40300781 -55.7271875 150.43492187 -55.5625 149.4375 C-55.41039062 148.45394531 -55.25828125 147.47039062 -55.1015625 146.45703125 C-54.72483399 144.03184146 -54.33645144 141.6091162 -53.9375 139.1875 C-52.95007813 139.22230469 -51.96265625 139.25710937 -50.9453125 139.29296875 C-49.02332031 139.33357422 -49.02332031 139.33357422 -47.0625 139.375 C-45.78632813 139.40980469 -44.51015625 139.44460937 -43.1953125 139.48046875 C-42.12023437 139.38378906 -41.04515625 139.28710938 -39.9375 139.1875 C-37.48232488 135.50473731 -37.69490295 133.72116613 -37.71044922 129.3293457 C-37.71015717 128.63640411 -37.70986511 127.94346252 -37.70956421 127.22952271 C-37.71095681 124.94064788 -37.72651443 122.65209916 -37.7421875 120.36328125 C-37.74591789 118.77573321 -37.74876474 117.18818288 -37.75076294 115.60063171 C-37.7583974 111.42322426 -37.77804425 107.24595599 -37.8001709 103.06860352 C-37.82063337 98.80552045 -37.82976551 94.5424149 -37.83984375 90.27929688 C-37.86129035 81.91530073 -37.895424 73.55141768 -37.9375 65.1875 C-40.9075 65.1875 -43.8775 65.1875 -46.9375 65.1875 C-46.9375 56.9375 -46.9375 48.6875 -46.9375 40.1875 C-43.9675 40.1875 -40.9975 40.1875 -37.9375 40.1875 C-37.9375 37.8775 -37.9375 35.5675 -37.9375 33.1875 C-37.2775 33.1875 -36.6175 33.1875 -35.9375 33.1875 C-35.77894531 32.49785156 -35.62039063 31.80820312 -35.45703125 31.09765625 C-33.03793639 21.354451 -28.85821679 11.75037962 -20.9375 5.1875 C-17.875 4.5625 -17.875 4.5625 -14.9375 4.1875 C-13.9475 3.5275 -12.9575 2.8675 -11.9375 2.1875 C-11.9375 1.8575 -11.9375 1.5275 -11.9375 1.1875 C-7.91667621 0.23739986 -4.12750253 0.02240772 0 0 Z M-6.9375 1.1875 C-6.9375 1.5175 -6.9375 1.8475 -6.9375 2.1875 C-2.6475 2.1875 1.6425 2.1875 6.0625 2.1875 C6.0625 1.8575 6.0625 1.5275 6.0625 1.1875 C1.7725 1.1875 -2.5175 1.1875 -6.9375 1.1875 Z M7.0625 2.1875 C11.0625 3.1875 11.0625 3.1875 11.0625 3.1875 Z M42.0625 2.1875 C46.0625 3.1875 46.0625 3.1875 46.0625 3.1875 Z M-7.9375 32.1875 C-7.9375 35.4875 -7.9375 38.7875 -7.9375 42.1875 C-7.6075 42.1875 -7.2775 42.1875 -6.9375 42.1875 C-6.9375 38.8875 -6.9375 35.5875 -6.9375 32.1875 C-7.2675 32.1875 -7.5975 32.1875 -7.9375 32.1875 Z M-5.9375 41.1875 C-5.9375 41.5175 -5.9375 41.8475 -5.9375 42.1875 C0.9925 42.1875 7.9225 42.1875 15.0625 42.1875 C15.0625 41.8575 15.0625 41.5275 15.0625 41.1875 C8.1325 41.1875 1.2025 41.1875 -5.9375 41.1875 Z M-36.9375 63.1875 C-36.9375 86.2875 -36.9375 109.3875 -36.9375 133.1875 C-36.6075 133.1875 -36.2775 133.1875 -35.9375 133.1875 C-35.9375 110.0875 -35.9375 86.9875 -35.9375 63.1875 C-36.2675 63.1875 -36.5975 63.1875 -36.9375 63.1875 Z M-5.9375 63.1875 C-5.9375 63.5175 -5.9375 63.8475 -5.9375 64.1875 C0.9925 64.1875 7.9225 64.1875 15.0625 64.1875 C15.0625 63.8575 15.0625 63.5275 15.0625 63.1875 C8.1325 63.1875 1.2025 63.1875 -5.9375 63.1875 Z M16.0625 63.1875 C16.0625 86.9475 16.0625 110.7075 16.0625 135.1875 C16.3925 135.1875 16.7225 135.1875 17.0625 135.1875 C17.0625 111.4275 17.0625 87.6675 17.0625 63.1875 C16.7325 63.1875 16.4025 63.1875 16.0625 63.1875 Z M-51.9375 141.1875 C-51.9375 141.5175 -51.9375 141.8475 -51.9375 142.1875 C-49.2975 142.1875 -46.6575 142.1875 -43.9375 142.1875 C-43.9375 141.8575 -43.9375 141.5275 -43.9375 141.1875 C-46.5775 141.1875 -49.2175 141.1875 -51.9375 141.1875 Z M2.0625 141.1875 C2.0625 141.5175 2.0625 141.8475 2.0625 142.1875 C4.7025 142.1875 7.3425 142.1875 10.0625 142.1875 C10.0625 141.8575 10.0625 141.5275 10.0625 141.1875 C7.4225 141.1875 4.7825 141.1875 2.0625 141.1875 Z M-50.9375 164.1875 C-50.9375 164.5175 -50.9375 164.8475 -50.9375 165.1875 C-45.9875 165.1875 -41.0375 165.1875 -35.9375 165.1875 C-35.9375 164.8575 -35.9375 164.5275 -35.9375 164.1875 C-40.8875 164.1875 -45.8375 164.1875 -50.9375 164.1875 Z " fill="#01A5FD" transform="translate(428.9375,0.8125)"/>
<path d="M0 0 C3 1 3 1 4 3 C4.99 3.33 5.98 3.66 7 4 C7.495 4.99 7.495 4.99 8 6 C8.680625 6.2475 9.36125 6.495 10.0625 6.75 C14.23815646 8.52687509 17.86427069 10.68292731 21 14 C21.75 17.625 21.75 17.625 21 21 C19.125 23.3125 19.125 23.3125 17 25 C11.13648419 30.86351581 11.55947344 40.89278179 11.55859375 48.640625 C11.54538589 49.72527039 11.53217804 50.80991577 11.51856995 51.9274292 C11.47799568 55.36831233 11.45611473 58.80893343 11.4375 62.25 C11.16834921 100.70865709 11.16834921 100.70865709 3.9375 115.1171875 C2.875935 117.13923379 2.875935 117.13923379 2 120 C0.515 120.495 0.515 120.495 -1 121 C-1.29261719 121.61488281 -1.58523437 122.22976562 -1.88671875 122.86328125 C-3.37221707 125.71439556 -5.03232986 126.60406489 -7.8125 128.1875 C-8.66457031 128.69667969 -9.51664062 129.20585937 -10.39453125 129.73046875 C-20.49534752 133.2870942 -32.23621741 132.13043637 -42.8125 132.0625 C-44.19856606 132.05746684 -45.58463393 132.0529072 -46.97070312 132.04882812 C-50.31384975 132.03717953 -53.65690011 132.02082429 -57 132 C-57 131.34 -57 130.68 -57 130 C-58.11375 130.04125 -59.2275 130.0825 -60.375 130.125 C-64 130 -64 130 -66 128 C-67.32392972 126.98758315 -68.65599167 125.98560611 -70 125 C-68.52033871 117.28835349 -66.79704634 109.64343712 -65 102 C-61.8614943 102.74438917 -58.97990339 103.75837359 -56 105 C-56 105.66 -56 106.32 -56 107 C-48.52058632 108.94210433 -41.74152536 110.39363688 -34 110 C-34 109.34 -34 108.68 -34 108 C-33.32453125 107.91363281 -32.6490625 107.82726562 -31.953125 107.73828125 C-26.18549066 106.87174215 -26.18549066 106.87174215 -21.4375 103.6875 C-20.00828669 101.0154925 -19.24440943 99.01438297 -19 96 C-19.33 95.34 -19.66 94.68 -20 94 C-20.53012695 94.3304834 -21.06025391 94.6609668 -21.60644531 95.00146484 C-24.68237306 96.28467012 -26.97284872 96.13335619 -30.296875 95.9765625 C-31.50214844 95.925 -32.70742188 95.8734375 -33.94921875 95.8203125 C-35.20347656 95.75585938 -36.45773438 95.69140625 -37.75 95.625 C-39.01972656 95.56828125 -40.28945313 95.5115625 -41.59765625 95.453125 C-44.73234615 95.31171042 -47.86622836 95.16030009 -51 95 C-51 94.34 -51 93.68 -51 93 C-51.825 92.95875 -52.65 92.9175 -53.5 92.875 C-58.19940265 91.70014934 -61.42558769 89.216118 -65 86 C-65.33 85.34 -65.66 84.68 -66 84 C-66.66 83.67 -67.32 83.34 -68 83 C-68.3448086 81.66958806 -68.67522378 80.33544348 -69 79 C-69.9470431 77.06725898 -70.92990118 75.15187357 -71.9375 73.25 C-78.54612775 60.09613662 -78.59782581 47.04313313 -74 33 C-72.42537618 28.77882534 -70.94281882 24.91733723 -67.6875 21.75 C-64.9245969 19.15188388 -64.9245969 19.15188388 -63.3125 16.0625 C-59.58703332 11.12877386 -55.11987017 7.69027473 -48.87548828 6.64404297 C-43.92233039 6.12557962 -38.97732652 6.01154832 -34 6 C-34 5.67 -34 5.34 -34 5 C-27.00479511 4.20509035 -21.06886803 6.59121636 -15 10 C-13.03811968 11.9711127 -12.1854474 13.4512881 -11 16 C-10.62488281 15.41992188 -10.24976562 14.83984375 -9.86328125 14.2421875 C-7.42781051 10.52456717 -5.00867152 6.88769434 -2.125 3.5 C0.1079414 1.41986031 0.1079414 1.41986031 0 0 Z M-35 27 C-35 27.33 -35 27.66 -35 28 C-33.02 28 -31.04 28 -29 28 C-29 27.67 -29 27.34 -29 27 C-30.98 27 -32.96 27 -35 27 Z M-43 33 C-43.5775 33.45375 -44.155 33.9075 -44.75 34.375 C-48.53428577 39.29457151 -48.38662638 45.39699927 -48.375 51.3125 C-48.37338867 52.15683594 -48.37177734 53.00117187 -48.37011719 53.87109375 C-48.22817678 61.06274111 -47.23342666 66.76657334 -42 72 C-36.4976356 74.7511822 -30.68399738 74.51615334 -24.75 73.375 C-20.12343383 71.06171692 -18.52522118 67.55677068 -16.9140625 62.78125 C-14.52298963 52.88997421 -14.75155357 41.92618991 -20 33 C-20.66 32.34 -21.32 31.68 -22 31 C-22.66 31 -23.32 31 -24 31 C-24.99 30.34 -25.98 29.68 -27 29 C-33.42137526 28.04950383 -37.95164829 28.69043147 -43 33 Z M-34 75 C-34 75.33 -34 75.66 -34 76 C-32.02 76 -30.04 76 -28 76 C-28 75.67 -28 75.34 -28 75 C-29.98 75 -31.96 75 -34 75 Z M-18 89 C-19.33332095 91.6666419 -18.67102033 93.16680303 -18 96 C-17.67 96 -17.34 96 -17 96 C-17 93.69 -17 91.38 -17 89 C-17.33 89 -17.66 89 -18 89 Z " fill="#01A5FD" transform="translate(82,35)"/>
<path d="M0 0 C1.08539063 -0.01933594 2.17078125 -0.03867187 3.2890625 -0.05859375 C11.45196133 -0.0098891 20.51531899 1.422527 26.71484375 7.23193359 C27.35099609 7.92150146 27.35099609 7.92150146 28 8.625 C28.639375 8.934375 29.27875 9.24375 29.9375 9.5625 C32.51695724 10.8913113 34.12016277 12.4210529 36 14.625 C36.33466783 15.957999 36.66779961 17.29138394 37 18.625 C38.18516056 21.05313383 39.46177206 23.41992142 40.74609375 25.796875 C46.12816967 37.93588737 45.70604798 53.41490189 41.2734375 65.75390625 C38.38534685 72.26539898 34.73140787 78.28308788 30 83.625 C29.236875 84.49125 28.47375 85.3575 27.6875 86.25 C21.06479716 92.10262112 14.06428647 92.24798882 5.5625 92.5625 C4.46873047 92.63017578 3.37496094 92.69785156 2.24804688 92.76757812 C-4.73869896 93.05781621 -9.05777286 92.37164858 -15 88.625 C-15.495 88.13 -15.495 88.13 -16 87.625 C-16.33 100.165 -16.66 112.705 -17 125.625 C-25.91 125.625 -34.82 125.625 -44 125.625 C-44.090762 114.52341135 -44.16398042 103.42207352 -44.20724869 92.32019615 C-44.22802667 87.16384347 -44.25616319 82.00776019 -44.30175781 76.8515625 C-44.34556758 71.86538714 -44.3692105 66.87946913 -44.37950897 61.893116 C-44.38683782 60.00112488 -44.40114725 58.10914611 -44.42292023 56.21726608 C-44.59765976 40.38871391 -43.38122195 27.38879748 -33 14.625 C-32.278125 13.67625 -31.55625 12.7275 -30.8125 11.75 C-22.51435156 2.02113631 -12.44736712 -0.22174645 0 0 Z M-12 1.625 C-12 1.955 -12 2.285 -12 2.625 C-10.35 2.625 -8.7 2.625 -7 2.625 C-7 2.295 -7 1.965 -7 1.625 C-8.65 1.625 -10.3 1.625 -12 1.625 Z M7 1.625 C7 1.955 7 2.285 7 2.625 C8.65 2.625 10.3 2.625 12 2.625 C12 2.295 12 1.965 12 1.625 C10.35 1.625 8.7 1.625 7 1.625 Z M-6 24.625 C-6.66 24.769375 -7.32 24.91375 -8 25.0625 C-10.85358264 25.86507012 -11.47466096 27.10487463 -13 29.625 C-18.36150959 40.76044299 -17.87014675 51.08557162 -14 62.625 C-13.34 63.285 -12.68 63.945 -12 64.625 C-11.38125 65.285 -10.7625 65.945 -10.125 66.625 C-8.12543654 68.50694208 -6.47834364 69.51401837 -4 70.625 C-3.67 70.955 -3.34 71.285 -3 71.625 C0.08978031 71.71116917 3.01592462 71.43688357 6 70.625 C8.1386077 68.23512067 8.1386077 68.23512067 9 65.625 C9.66 65.955 10.32 66.285 11 66.625 C11.65357278 65.39993102 12.29748233 64.16970484 12.9375 62.9375 C13.29714844 62.25300781 13.65679687 61.56851563 14.02734375 60.86328125 C17.90881985 51.93120975 16.8252733 40.66752705 13.94921875 31.61328125 C12.9101101 29.43671211 11.87045781 28.13963807 10 26.625 C9.34 26.625 8.68 26.625 8 26.625 C7.76152344 25.98433594 7.52304688 25.34367187 7.27734375 24.68359375 C6.18994603 22.44884084 6.18994603 22.44884084 3.94140625 21.91015625 C2.76384766 21.79994141 2.76384766 21.79994141 1.5625 21.6875 C0.78003906 21.59597656 -0.00242187 21.50445312 -0.80859375 21.41015625 C-3.5637705 21.68027162 -4.22011056 22.59084064 -6 24.625 Z M-6 90.625 C-2 91.625 -2 91.625 -2 91.625 Z " fill="#01A5FD" transform="translate(242,39.375)"/>
<path d="M0 0 C1.01312256 0.01434082 2.02624512 0.02868164 3.07006836 0.04345703 C10.07025805 0.19528057 16.87387903 0.66863231 23.6875 2.375 C24.8425 2.66375 25.9975 2.9525 27.1875 3.25 C30.1376764 4.57757938 31.57018796 5.92685795 33.6875 8.375 C34.13867188 8.87 34.58984375 9.365 35.0546875 9.875 C37.85235635 13.0060698 40.43962423 16.26709632 42.875 19.6875 C43.57689453 20.67169922 43.57689453 20.67169922 44.29296875 21.67578125 C48.11653182 29.07657139 49.22194428 36.50210307 49.125 44.75 C49.11670166 45.6675708 49.10840332 46.5851416 49.09985352 47.53051758 C48.82881283 58.444487 45.98566218 66.41461282 39.37109375 75.12109375 C37.60553024 77.38291469 37.60553024 77.38291469 36.16015625 80.09765625 C34.6875 82.375 34.6875 82.375 31.6875 83.375 C31.23938965 83.83535645 30.7912793 84.29571289 30.32958984 84.77001953 C24.90556273 90.07146976 16.83864127 91.70413564 9.5234375 91.8203125 C7.03540771 91.74174314 4.54812627 91.63463809 2.0625 91.5 C0.81726563 91.47164063 -0.42796875 91.44328125 -1.7109375 91.4140625 C-10.61836547 91.03822166 -17.55258052 89.20937958 -24.5625 83.5625 C-27.23397364 80.22315795 -29.8318458 76.85942407 -32.3125 73.375 C-32.77140625 72.74464844 -33.2303125 72.11429687 -33.703125 71.46484375 C-41.24650102 60.39971085 -42.05177258 46.59216201 -39.62109375 33.7109375 C-36.78311996 23.5702278 -31.29840819 16.0655387 -24.3125 8.375 C-23.714375 7.653125 -23.11625 6.93125 -22.5 6.1875 C-15.71824471 0.56833133 -8.53750324 -0.22744073 0 0 Z M-1.3125 23.375 C-1.951875 23.49875 -2.59125 23.6225 -3.25 23.75 C-6.62845635 24.77377465 -7.47767036 26.35640931 -9.3125 29.375 C-13.1327689 40.68949853 -13.29135054 50.07252814 -9.3125 61.375 C-7.8449487 64.04281662 -6.65407285 65.31218582 -4.3125 67.375 C-1.67065459 68.17181318 -1.67065459 68.17181318 0.6875 68.375 C1.0175 69.035 1.3475 69.695 1.6875 70.375 C4.76204047 70.30409865 7.69872299 70.1274935 10.6875 69.375 C12.8261077 66.98512067 12.8261077 66.98512067 13.6875 64.375 C14.3475 64.705 15.0075 65.035 15.6875 65.375 C21.49425456 54.01395846 22.54442568 42.6653216 18.63671875 30.36328125 C17.5976101 28.18671211 16.55795781 26.88963807 14.6875 25.375 C14.0275 25.375 13.3675 25.375 12.6875 25.375 C12.44902344 24.73433594 12.21054688 24.09367187 11.96484375 23.43359375 C10.87744603 21.19884084 10.87744603 21.19884084 8.62890625 20.66015625 C7.45134766 20.54994141 7.45134766 20.54994141 6.25 20.4375 C5.46753906 20.34597656 4.68507813 20.25445312 3.87890625 20.16015625 C1.12498546 20.43014848 0.46601449 21.34166911 -1.3125 23.375 Z M10.6875 89.375 C10.6875 89.705 10.6875 90.035 10.6875 90.375 C12.3375 90.375 13.9875 90.375 15.6875 90.375 C15.6875 90.045 15.6875 89.715 15.6875 89.375 C14.0375 89.375 12.3875 89.375 10.6875 89.375 Z " fill="#01A5FD" transform="translate(141.3125,40.625)"/>
<path d="M0 0 C8.91 0 17.82 0 27 0 C27.04898437 3.48175781 27.09796875 6.96351562 27.1484375 10.55078125 C27.20257268 13.95324705 27.25983079 17.35564712 27.31738281 20.75805664 C27.35547421 23.10794094 27.39036026 25.45787962 27.421875 27.80786133 C27.46795921 31.20153126 27.52587924 34.59483319 27.5859375 37.98828125 C27.59748871 39.02519608 27.60903992 40.0621109 27.62094116 41.13044739 C27.59832051 53.00018699 27.59832051 53.00018699 31.9375 63.625 C34.04659371 65.16170757 34.04659371 65.16170757 37 66 C37 66.33 37 66.66 37 67 C38.98 67 40.96 67 43 67 C43 66.34 43 65.68 43 65 C43.763125 64.95875 44.52625 64.9175 45.3125 64.875 C48.22610732 64.22889103 48.22610732 64.22889103 49.75 61.4375 C52.4496617 54.01343033 52.19234224 46.09365661 52.31640625 38.28125 C52.33718735 37.18276733 52.35796844 36.08428467 52.37937927 34.95251465 C52.44438623 31.46840231 52.50353111 27.98421924 52.5625 24.5 C52.60573175 22.12759706 52.64934748 19.75520109 52.69335938 17.3828125 C52.8007344 11.58861287 52.90017058 5.79435413 53 0 C61.91 0 70.82 0 80 0 C80.08420295 7.49640186 80.16430029 14.99106159 80.20700073 22.48752594 C80.22800398 25.97944153 80.2560044 29.47096004 80.30175781 32.96264648 C80.35408311 36.98164411 80.37304512 41.00023025 80.390625 45.01953125 C80.41127014 46.25331009 80.43191528 47.48708893 80.45318604 48.758255 C80.45551276 57.84872478 79.15877169 65.71044113 73.67578125 73.15625 C72.89589844 73.9296875 72.11601562 74.703125 71.3125 75.5 C67.94145862 78.79945078 67.94145862 78.79945078 66 83 C63.0625 84.125 63.0625 84.125 60 85 C57.84188612 85.94729537 57.84188612 85.94729537 56 88 C53.44249547 88.1995697 50.99561859 88.27986826 48.4375 88.265625 C47.69040771 88.26753845 46.94331543 88.2694519 46.17358398 88.27142334 C44.59325829 88.27278498 43.01292142 88.26909 41.43261719 88.26074219 C39.00951078 88.250042 36.58714577 88.26063779 34.1640625 88.2734375 C32.63020669 88.2721159 31.09635135 88.2695535 29.5625 88.265625 C28.83538818 88.26967346 28.10827637 88.27372192 27.35913086 88.27789307 C22.22992361 88.22992361 22.22992361 88.22992361 20 86 C19.13375 85.814375 19.13375 85.814375 18.25 85.625 C14.97845812 84.71623837 12.687638 83.04494196 10 81 C9.29125778 79.68854787 8.62933194 78.35135618 8 77 C6.49849675 74.5641374 4.97299602 72.14503625 3.4375 69.73046875 C-0.5996721 62.06203588 -0.26410459 54.6969615 -0.1953125 46.19140625 C-0.19157667 44.85619825 -0.18873239 43.52098749 -0.18673706 42.18577576 C-0.17914541 38.69231434 -0.15953606 35.19902245 -0.1373291 31.70562744 C-0.11677371 28.13255141 -0.1076047 24.55944684 -0.09765625 20.98632812 C-0.07734974 13.99073629 -0.03819258 6.9956084 0 0 Z " fill="#00A5FE" transform="translate(294,43)"/>
<path d="M0 0 C0.33 0 0.66 0 1 0 C1 18.81 1 37.62 1 57 C0.67 57 0.34 57 0 57 C-0.87185397 50.25373773 -1.14687646 43.67327932 -1.1328125 36.875 C-1.13376923 35.84689209 -1.13472595 34.81878418 -1.13571167 33.75952148 C-1.13638794 31.60481708 -1.13457255 29.45011057 -1.13037109 27.29541016 C-1.12497075 23.98205076 -1.13035726 20.66882422 -1.13671875 17.35546875 C-1.13605873 15.2578122 -1.13477916 13.16015573 -1.1328125 11.0625 C-1.13483673 10.06782715 -1.13686096 9.0731543 -1.13894653 8.04833984 C-1.13579437 7.13648926 -1.13264221 6.22463867 -1.12939453 5.28515625 C-1.12859894 4.47957275 -1.12780334 3.67398926 -1.12698364 2.84399414 C-1 1 -1 1 0 0 Z " fill="#031BD5" transform="translate(323,44)"/>
<path d="M0 0 C0.33 0 0.66 0 1 0 C1 28.71 1 57.42 1 87 C0.67 87 0.34 87 0 87 C0 58.29 0 29.58 0 0 Z " fill="#2392DA" transform="translate(196,78)"/>
<path d="M0 0 C0.33 0 0.66 0 1 0 C1 19.8 1 39.6 1 60 C0.67 60 0.34 60 0 60 C0 40.2 0 20.4 0 0 Z " fill="#1A7DD7" transform="translate(292,43)"/>
<path d="M0 0 C0.33 0 0.66 0 1 0 C1 19.47 1 38.94 1 59 C0.67 59 0.34 59 0 59 C0 39.53 0 20.06 0 0 Z " fill="#1B97D9" transform="translate(375,43)"/>
<path d="M0 0 C0.33 0 0.66 0 1 0 C1 18.81 1 37.62 1 57 C0.67 57 0.34 57 0 57 C0 38.19 0 19.38 0 0 Z " fill="#0A1AC6" transform="translate(344,44)"/>
<path d="M0 0 C0.33 0 0.66 0 1 0 C1 17.16 1 34.32 1 52 C0.67 52 0.34 52 0 52 C0 34.84 0 17.68 0 0 Z " fill="#0DE4FB" transform="translate(94,72)"/>
<path d="M0 0 C8.91 0 17.82 0 27 0 C27 0.33 27 0.66 27 1 C18.09 1 9.18 1 0 1 C0 0.67 0 0.34 0 0 Z " fill="#019DF8" transform="translate(198,166)"/>
<path d="M0 0 C8.91 0 17.82 0 27 0 C27 0.33 27 0.66 27 1 C18.09 1 9.18 1 0 1 C0 0.67 0 0.34 0 0 Z " fill="#02A7FC" transform="translate(347,41)"/>
<path d="M0 0 C8.91 0 17.82 0 27 0 C27 0.33 27 0.66 27 1 C18.09 1 9.18 1 0 1 C0 0.67 0 0.34 0 0 Z " fill="#01A8FB" transform="translate(294,41)"/>
<path d="M0 0 C0.33 0 0.66 0 1 0 C1.33 7.26 1.66 14.52 2 22 C-0.10209857 18.84685215 -0.2434761 18.13896919 -0.1953125 14.55078125 C-0.18886719 13.70322266 -0.18242188 12.85566406 -0.17578125 11.98242188 C-0.15902344 11.10134766 -0.14226563 10.22027344 -0.125 9.3125 C-0.11597656 8.41982422 -0.10695312 7.52714844 -0.09765625 6.60742188 C-0.07409748 4.40467686 -0.04120329 2.20247412 0 0 Z " fill="#20ADE8" transform="translate(35,77)"/>
<path d="M0 0 C6.93 0 13.86 0 21 0 C21 0.33 21 0.66 21 1 C14.07 1 7.14 1 0 1 C0 0.67 0 0.34 0 0 Z " fill="#098EF0" transform="translate(35,168)"/>
<path d="M0 0 C0.33 0 0.66 0 1 0 C1 6.93 1 13.86 1 21 C0.67 21 0.34 21 0 21 C0 14.07 0 7.14 0 0 Z " fill="#229ED8" transform="translate(380,43)"/>
<path d="M0 0 C0.33 0 0.66 0 1 0 C1 6.93 1 13.86 1 21 C0.67 21 0.34 21 0 21 C0 14.07 0 7.14 0 0 Z " fill="#1C83DE" transform="translate(497,5)"/>
<path d="M0 0 C0.33 0 0.66 0 1 0 C1 6.6 1 13.2 1 20 C0.67 20 0.34 20 0 20 C0 13.4 0 6.8 0 0 Z " fill="#219FDB" transform="translate(287,75)"/>
<path d="M0 0 C0.33 0 0.66 0 1 0 C1 6.6 1 13.2 1 20 C0.67 20 0.34 20 0 20 C0 13.4 0 6.8 0 0 Z " fill="#1973D8" transform="translate(497,43)"/>
<path d="M0 0 C0.33 0 0.66 0 1 0 C1 6.6 1 13.2 1 20 C0.67 20 0.34 20 0 20 C0 13.4 0 6.8 0 0 Z " fill="#29EAEB" transform="translate(443,5)"/>
<path d="M0 0 C4.29 0 8.58 0 13 0 C12.67 0.99 12.34 1.98 12 3 C10.37419034 2.88601335 8.74932843 2.75844341 7.125 2.625 C6.22007812 2.55539063 5.31515625 2.48578125 4.3828125 2.4140625 C2 2 2 2 0 0 Z " fill="#16A6EA" transform="translate(375,140)"/>
<path d="M0 0 C5.61 0 11.22 0 17 0 C17 0.33 17 0.66 17 1 C11.39 1 5.78 1 0 1 C0 0.67 0 0.34 0 0 Z " fill="#21A6E2" transform="translate(37,131)"/>
<path d="M0 0 C0.33 0 0.66 0 1 0 C1 5.61 1 11.22 1 17 C0.67 17 0.34 17 0 17 C0 11.39 0 5.78 0 0 Z " fill="#0BADF7" transform="translate(99,78)"/>
<path d="M0 0 C5.28 0 10.56 0 16 0 C16 0.33 16 0.66 16 1 C10.72 1 5.44 1 0 1 C0 0.67 0 0.34 0 0 Z " fill="#09A3F5" transform="translate(431,166)"/>
<path d="M0 0 C4.95 0 9.9 0 15 0 C15 0.33 15 0.66 15 1 C10.05 1 5.1 1 0 1 C0 0.67 0 0.34 0 0 Z " fill="#109FF1" transform="translate(326,132)"/>
<path d="M0 0 C0.33 0 0.66 0 1 0 C1 4.95 1 9.9 1 15 C0.67 15 0.34 15 0 15 C0 10.05 0 5.1 0 0 Z " fill="#0FA4F1" transform="translate(3,79)"/>
<path d="M0 0 C0.33 0 0.66 0 1 0 C1 4.95 1 9.9 1 15 C0.67 15 0.34 15 0 15 C0 10.05 0 5.1 0 0 Z " fill="#1FA8E0" transform="translate(64,79)"/>
<path d="M0 0 C4.62 0 9.24 0 14 0 C14 0.33 14 0.66 14 1 C9.38 1 4.76 1 0 1 C0 0.67 0 0.34 0 0 Z " fill="#12ACF0" transform="translate(138,132)"/>
<path d="M0 0 C0.33 0 0.66 0 1 0 C1 4.62 1 9.24 1 14 C0.67 14 0.34 14 0 14 C0 9.38 0 4.76 0 0 Z " fill="#21A8E4" transform="translate(256,79)"/>
<path d="M0 0 C0.33 0 0.66 0 1 0 C1 4.62 1 9.24 1 14 C0.67 14 0.34 14 0 14 C0 9.38 0 4.76 0 0 Z " fill="#1CA0DF" transform="translate(160,79)"/>
<path d="M0 0 C4.62 0 9.24 0 14 0 C14 0.33 14 0.66 14 1 C9.38 1 4.76 1 0 1 C0 0.67 0 0.34 0 0 Z " fill="#1193EB" transform="translate(235,39)"/>
<path d="M0 0 C4.29 0 8.58 0 13 0 C13 0.33 13 0.66 13 1 C8.71 1 4.42 1 0 1 C0 0.67 0 0.34 0 0 Z " fill="#109FEC" transform="translate(240,132)"/>
<path d="M0 0 C4.29 0 8.58 0 13 0 C13 0.33 13 0.66 13 1 C8.71 1 4.42 1 0 1 C0 0.67 0 0.34 0 0 Z " fill="#14ADEC" transform="translate(140,39)"/>
<path d="M0 0 C2.62187494 1.04874998 3.79371361 1.64931313 5.25 4.125 C5.4975 4.74375 5.745 5.3625 6 6 C3.97945196 4.35830472 1.97956942 2.69088222 0 1 C0 0.67 0 0.34 0 0 Z " fill="#0D82EF" transform="translate(175,49)"/>
<path d="M0 0 C0.33 0 0.66 0 1 0 C1 3.3 1 6.6 1 10 C0.67 10 0.34 10 0 10 C0 6.7 0 3.4 0 0 Z " fill="#29AFE3" transform="translate(191,86)"/>
<path d="M0 0 C2.97 0 5.94 0 9 0 C9 0.33 9 0.66 9 1 C6.03 1 3.06 1 0 1 C0 0.67 0 0.34 0 0 Z " fill="#1C8ED1" transform="translate(39,144)"/>
<path d="M0 0 C0.33 0 0.66 0 1 0 C1 2.97 1 5.94 1 9 C0.67 9 0.34 9 0 9 C0 6.03 0 3.06 0 0 Z " fill="#25A6E2" transform="translate(93,124)"/>
<path d="M0 0 C0 0.99 0 1.98 0 3 C-1.98 3.99 -1.98 3.99 -4 5 C-2.68 3.35 -1.36 1.7 0 0 Z " fill="#18AFEE" transform="translate(366,118)"/>
<path d="M0 0 C0.33 0 0.66 0 1 0 C1 2.97 1 5.94 1 9 C0.67 9 0.34 9 0 9 C0 6.03 0 3.06 0 0 Z " fill="#20A2D8" transform="translate(191,75)"/>
<path d="M0 0 C0.66 0.33 1.32 0.66 2 1 C0.35 2.32 -1.3 3.64 -3 5 C-1.125 1.125 -1.125 1.125 0 0 Z " fill="#11D0F0" transform="translate(113,51)"/>
<path d="M0 0 C2.97 0 5.94 0 9 0 C9 0.33 9 0.66 9 1 C6.03 1 3.06 1 0 1 C0 0.67 0 0.34 0 0 Z " fill="#0BBAF9" transform="translate(429,26)"/>
<path d="M0 0 C0.33 0 0.66 0 1 0 C1 2.64 1 5.28 1 8 C0.67 8 0.34 8 0 8 C0 5.36 0 2.72 0 0 Z " fill="#299FDF" transform="translate(424,155)"/>
<path d="M0 0 C2.64 0 5.28 0 8 0 C8 0.33 8 0.66 8 1 C5.36 1 2.72 1 0 1 C0 0.67 0 0.34 0 0 Z " fill="#06ABFB" transform="translate(483,26)"/>
<path d="M0 0 C0.33 0 0.66 0 1 0 C1 2.31 1 4.62 1 7 C0.67 7 0.34 7 0 7 C0 4.69 0 2.38 0 0 Z " fill="#11A4F1" transform="translate(371,153)"/>
<path d="M0 0 C0.33 0 0.66 0 1 0 C1 2.31 1 4.62 1 7 C0.67 7 0.34 7 0 7 C0 4.69 0 2.38 0 0 Z " fill="#128FE8" transform="translate(425,148)"/>
<path d="M0 0 C0.33 0 0.66 0 1 0 C1 2.31 1 4.62 1 7 C0.67 7 0.34 7 0 7 C0 4.69 0 2.38 0 0 Z " fill="#2190E2" transform="translate(372,146)"/>
<path d="M0 0 C0.33 0 0.66 0 1 0 C1 2.31 1 4.62 1 7 C0.67 7 0.34 7 0 7 C0 4.69 0 2.38 0 0 Z " fill="#23A7E3" transform="translate(421,132)"/>
<path d="M0 0 C0.33 0 0.66 0 1 0 C1 2.31 1 4.62 1 7 C0.67 7 0.34 7 0 7 C0 4.69 0 2.38 0 0 Z " fill="#0EA5EC" transform="translate(226,83)"/>
<path d="M0 0 C0.33 0 0.66 0 1 0 C1 2.31 1 4.62 1 7 C0.67 7 0.34 7 0 7 C0 4.69 0 2.38 0 0 Z " fill="#1C74C8" transform="translate(131,76)"/>
<path d="M0 0 C0.66 0.33 1.32 0.66 2 1 C0.68 1.99 -0.64 2.98 -2 4 C-1.34 2.68 -0.68 1.36 0 0 Z " fill="#1BC5F2" transform="translate(78,38)"/>
<path d="M0 0 C0.33 0 0.66 0 1 0 C1 2.31 1 4.62 1 7 C0.67 7 0.34 7 0 7 C0 4.69 0 2.38 0 0 Z " fill="#0DA7EF" transform="translate(445,30)"/>
<path d="M0 0 C1.98 0 3.96 0 6 0 C6 0.33 6 0.66 6 1 C4.02 1 2.04 1 0 1 C0 0.67 0 0.34 0 0 Z " fill="#08B3F5" transform="translate(33,143)"/>
<path d="M0 0 C1.98 0 3.96 0 6 0 C6 0.33 6 0.66 6 1 C4.02 1 2.04 1 0 1 C0 0.67 0 0.34 0 0 Z " fill="#27A6DE" transform="translate(320,131)"/>
<path d="M0 0 C1.98 0 3.96 0 6 0 C6 0.33 6 0.66 6 1 C4.02 1 2.04 1 0 1 C0 0.67 0 0.34 0 0 Z " fill="#0ABAF6" transform="translate(331,109)"/>
<path d="M0 0 C1.98 0 3.96 0 6 0 C6 0.33 6 0.66 6 1 C4.02 1 2.04 1 0 1 C0 0.67 0 0.34 0 0 Z " fill="#10D9FC" transform="translate(239,109)"/>
<path d="M0 0 C1.98 0 3.96 0 6 0 C6 0.33 6 0.66 6 1 C4.02 1 2.04 1 0 1 C0 0.67 0 0.34 0 0 Z " fill="#10BFF8" transform="translate(143,109)"/>
<path d="M0 0 C0.33 0 0.66 0 1 0 C1 1.98 1 3.96 1 6 C0.67 6 0.34 6 0 6 C0 4.02 0 2.04 0 0 Z " fill="#29A9E5" transform="translate(227,90)"/>
<path d="M0 0 C0.33 0 0.66 0 1 0 C1 1.98 1 3.96 1 6 C0.67 6 0.34 6 0 6 C0 4.02 0 2.04 0 0 Z " fill="#217BD4" transform="translate(131,90)"/>
<path d="M0 0 C0.33 0 0.66 0 1 0 C1 1.98 1 3.96 1 6 C0.67 6 0.34 6 0 6 C0 4.02 0 2.04 0 0 Z " fill="#10A1FB" transform="translate(130,83)"/>
<path d="M0 0 C0.33 0 0.66 0 1 0 C1 1.98 1 3.96 1 6 C0.67 6 0.34 6 0 6 C0 4.02 0 2.04 0 0 Z " fill="#23A3DD" transform="translate(227,76)"/>
<path d="M0 0 C1.98 0 3.96 0 6 0 C6 0.33 6 0.66 6 1 C4.02 1 2.04 1 0 1 C0 0.67 0 0.34 0 0 Z " fill="#1B8ED2" transform="translate(153,40)"/>
<path d="M0 0 C1.98 0 3.96 0 6 0 C6 0.33 6 0.66 6 1 C4.02 1 2.04 1 0 1 C0 0.67 0 0.34 0 0 Z " fill="#1D90D2" transform="translate(134,40)"/>
<path d="M0 0 C1.98 0 3.96 0 6 0 C6 0.33 6 0.66 6 1 C4.02 1 2.04 1 0 1 C0 0.67 0 0.34 0 0 Z " fill="#2CA5E4" transform="translate(37,40)"/>
<path d="M0 0 C1.65 0 3.3 0 5 0 C5 0.33 5 0.66 5 1 C3.35 1 1.7 1 0 1 C0 0.67 0 0.34 0 0 Z " fill="#23A3E6" transform="translate(56,167)"/>
<path d="M0 0 C1.65 0 3.3 0 5 0 C5 0.33 5 0.66 5 1 C3.35 1 1.7 1 0 1 C0 0.67 0 0.34 0 0 Z " fill="#1BACE6" transform="translate(30,167)"/>
<path d="M0 0 C0.33 0 0.66 0 1 0 C1 1.65 1 3.3 1 5 C0.67 5 0.34 5 0 5 C0 3.35 0 1.7 0 0 Z " fill="#1C9CDE" transform="translate(426,143)"/>
<path d="M0 0 C0.33 0 0.66 0 1 0 C1 1.65 1 3.3 1 5 C0.67 5 0.34 5 0 5 C0 3.35 0 1.7 0 0 Z " fill="#11A5F5" transform="translate(474,135)"/>
<path d="M0 0 C1.65 0 3.3 0 5 0 C5 0.33 5 0.66 5 1 C3.35 1 1.7 1 0 1 C0 0.67 0 0.34 0 0 Z " fill="#1BA4E0" transform="translate(341,131)"/>
<path d="M0 0 C1.65 0 3.3 0 5 0 C5 0.33 5 0.66 5 1 C3.35 1 1.7 1 0 1 C0 0.67 0 0.34 0 0 Z " fill="#279AE9" transform="translate(133,131)"/>
<path d="M0 0 C0.33 0 0.66 0 1 0 C1 1.65 1 3.3 1 5 C0.67 5 0.34 5 0 5 C0 3.35 0 1.7 0 0 Z " fill="#13CBF8" transform="translate(286,95)"/>
<path d="M0 0 C0.33 0 0.66 0 1 0 C1 1.65 1 3.3 1 5 C0.67 5 0.34 5 0 5 C0 3.35 0 1.7 0 0 Z " fill="#1EA9E7" transform="translate(100,95)"/>
<path d="M0 0 C0.33 0 0.66 0 1 0 C1 1.65 1 3.3 1 5 C0.67 5 0.34 5 0 5 C0 3.35 0 1.7 0 0 Z " fill="#23A0E2" transform="translate(4,94)"/>
<path d="M0 0 C0.33 0 0.66 0 1 0 C1 1.65 1 3.3 1 5 C0.67 5 0.34 5 0 5 C0 3.35 0 1.7 0 0 Z " fill="#1AAEF1" transform="translate(63,74)"/>
<path d="M0 0 C0.33 0 0.66 0 1 0 C1 1.65 1 3.3 1 5 C0.67 5 0.34 5 0 5 C0 3.35 0 1.7 0 0 Z " fill="#197FE2" transform="translate(4,74)"/>
<path d="M0 0 C0.33 0 0.66 0 1 0 C1 1.65 1 3.3 1 5 C0.67 5 0.34 5 0 5 C0 3.35 0 1.7 0 0 Z " fill="#11C0FA" transform="translate(197,73)"/>
<path d="M0 0 C0.33 0 0.66 0 1 0 C1 1.65 1 3.3 1 5 C0.67 5 0.34 5 0 5 C0 3.35 0 1.7 0 0 Z " fill="#25A6E6" transform="translate(100,73)"/>
<path d="M0 0 C0.33 0 0.66 0 1 0 C1 1.65 1 3.3 1 5 C0.67 5 0.34 5 0 5 C0 3.35 0 1.7 0 0 Z " fill="#1FA2E3" transform="translate(392,29)"/>
<path d="M0 0 C1.65 0 3.3 0 5 0 C5 0.33 5 0.66 5 1 C3.35 1 1.7 1 0 1 C0 0.67 0 0.34 0 0 Z " fill="#26AAEE" transform="translate(489,2)"/>
<path d="M0 0 C4 1 4 1 4 1 Z " fill="#05A2E9" transform="translate(61,166)"/>
<path d="M0 0 C1 4 1 4 1 4 Z " fill="#037EF2" transform="translate(11,153)"/>
<path d="M0 0 C1 4 1 4 1 4 Z " fill="#1BC3FD" transform="translate(13,146)"/>
<path d="M0 0 C1 4 1 4 1 4 Z " fill="#25BFE9" transform="translate(14,142)"/>
<path d="M0 0 C4 1 4 1 4 1 Z " fill="#18B0E3" transform="translate(29,142)"/>
<path d="M0 0 C1 4 1 4 1 4 Z " fill="#02A3FB" transform="translate(92,133)"/>
<path d="M0 0 C4 1 4 1 4 1 Z " fill="#148AEA" transform="translate(253,131)"/>
<path d="M0 0 C1 4 1 4 1 4 Z " fill="#03BAFB" transform="translate(293,103)"/>
<path d="M0 0 C1 4 1 4 1 4 Z " fill="#14ABF7" transform="translate(374,102)"/>
<path d="M0 0 C1 4 1 4 1 4 Z " fill="#1DC5FA" transform="translate(190,96)"/>
<path d="M0 0 C1 4 1 4 1 4 Z " fill="#13A0F9" transform="translate(63,94)"/>
<path d="M0 0 C1 4 1 4 1 4 Z " fill="#0EB1F4" transform="translate(159,93)"/>
<path d="M0 0 C1 4 1 4 1 4 Z " fill="#0BABF1" transform="translate(255,93)"/>
<path d="M0 0 C1 4 1 4 1 4 Z " fill="#07A4F6" transform="translate(255,75)"/>
<path d="M0 0 C1 4 1 4 1 4 Z " fill="#01AFF2" transform="translate(159,75)"/>
<path d="M0 0 C1 4 1 4 1 4 Z " fill="#0CC3FC" transform="translate(286,71)"/>
<path d="M0 0 C1 4 1 4 1 4 Z " fill="#0AD1FC" transform="translate(190,71)"/>
<path d="M0 0 C1 4 1 4 1 4 Z " fill="#1E9FDE" transform="translate(95,68)"/>
<path d="M0 0 C4 1 4 1 4 1 Z " fill="#0085F8" transform="translate(240,62)"/>
<path d="M0 0 C4 1 4 1 4 1 Z " fill="#0C9FF7" transform="translate(144,62)"/>
<path d="M0 0 C1 4 1 4 1 4 Z " fill="#1CAAE2" transform="translate(446,26)"/>
<path d="M0 0 C1 4 1 4 1 4 Z " fill="#0E92F4" transform="translate(393,25)"/>
<path d="M0 0 C4 1 4 1 4 1 Z " fill="#167AC3" transform="translate(491,27)"/>
<path d="M0 0 C4 1 4 1 4 1 Z " fill="#2F8ED0" transform="translate(438,27)"/>
<path d="M0 0 C3 1 3 1 3 1 Z " fill="#1EB2EC" transform="translate(22,165)"/>
<path d="" fill="#3CB4E6" transform="translate(0,0)"/>
<path d="" fill="#1897E7" transform="translate(0,0)"/>
<path d="" fill="#1899E9" transform="translate(0,0)"/>
<path d="" fill="#12C6FD" transform="translate(0,0)"/>
<path d="" fill="#0792D8" transform="translate(0,0)"/>
<path d="" fill="#24A4EA" transform="translate(0,0)"/>
<path d="M0 0 C3 1 3 1 3 1 Z " fill="#0399F2" transform="translate(26,141)"/>
<path d="" fill="#09A1F9" transform="translate(0,0)"/>
<path d="" fill="#059BF1" transform="translate(0,0)"/>
<path d="" fill="#24B9E5" transform="translate(0,0)"/>
<path d="" fill="#299FE0" transform="translate(0,0)"/>
<path d="" fill="#3096E7" transform="translate(0,0)"/>
<path d="M0 0 C3 1 3 1 3 1 Z " fill="#0D96EB" transform="translate(34,130)"/>
<path d="" fill="#1BB2E3" transform="translate(0,0)"/>
<path d="M0 0 C3 1 3 1 3 1 Z " fill="#1BAFDC" transform="translate(245,108)"/>
<path d="M0 0 C3 1 3 1 3 1 Z " fill="#1091D2" transform="translate(149,108)"/>
<path d="" fill="#197AC8" transform="translate(0,0)"/>
<path d="" fill="#13ADF2" transform="translate(0,0)"/>
<path d="" fill="#2AC9FC" transform="translate(0,0)"/>
<path d="" fill="#39CAFA" transform="translate(0,0)"/>
<path d="" fill="#30A4EE" transform="translate(0,0)"/>
<path d="" fill="#09C0EF" transform="translate(0,0)"/>
<path d="" fill="#11C4FD" transform="translate(0,0)"/>
<path d="" fill="#159CD9" transform="translate(0,0)"/>
<path d="" fill="#1262C1" transform="translate(0,0)"/>
<path d="" fill="#08B1F2" transform="translate(0,0)"/>
<path d="" fill="#33A4EF" transform="translate(0,0)"/>
<path d="" fill="#24A9EB" transform="translate(0,0)"/>
<path d="" fill="#089FF0" transform="translate(0,0)"/>
<path d="" fill="#0E6FD0" transform="translate(0,0)"/>
<path d="" fill="#16ADF9" transform="translate(0,0)"/>
<path d="" fill="#1196D8" transform="translate(0,0)"/>
<path d="" fill="#16CEF5" transform="translate(0,0)"/>
<path d="" fill="#1AB1F7" transform="translate(0,0)"/>
<path d="" fill="#067FDA" transform="translate(0,0)"/>
<path d="" fill="#1D90D3" transform="translate(0,0)"/>
<path d="" fill="#0CB9F2" transform="translate(0,0)"/>
<path d="" fill="#30A2F3" transform="translate(0,0)"/>
<path d="" fill="#0C96E1" transform="translate(0,0)"/>
<path d="" fill="#0B94F0" transform="translate(0,0)"/>
<path d="" fill="#1F89DC" transform="translate(0,0)"/>
<path d="" fill="#1FB7EB" transform="translate(0,0)"/>
<path d="" fill="#1AA0E4" transform="translate(0,0)"/>
<path d="" fill="#2BC9F3" transform="translate(0,0)"/>
<path d="" fill="#12B5FE" transform="translate(0,0)"/>
<path d="" fill="#33C4F6" transform="translate(0,0)"/>
<path d="" fill="#0E8FF0" transform="translate(0,0)"/>
<path d="" fill="#0669EF" transform="translate(0,0)"/>
<path d="" fill="#2191D8" transform="translate(0,0)"/>
<path d="M0 0 C3 1 3 1 3 1 Z " fill="#2BBDE9" transform="translate(245,63)"/>
<path d="M0 0 C3 1 3 1 3 1 Z " fill="#26B6E4" transform="translate(149,63)"/>
<path d="" fill="#1B89C6" transform="translate(0,0)"/>
<path d="M0 0 C3 1 3 1 3 1 Z " fill="#2EC7F1" transform="translate(162,42)"/>
<path d="M0 0 C3 1 3 1 3 1 Z " fill="#0E93EF" transform="translate(159,41)"/>
<path d="M0 0 C3 1 3 1 3 1 Z " fill="#089EF1" transform="translate(34,41)"/>
<path d="M0 0 C3 1 3 1 3 1 Z " fill="#0A07B3" transform="translate(44,39)"/>
<path d="" fill="#21D3FA" transform="translate(0,0)"/>
<path d="" fill="#1293ED" transform="translate(0,0)"/>
<path d="" fill="#2285D9" transform="translate(0,0)"/>
<path d="M0 0 C3 1 3 1 3 1 Z " fill="#1FC9F5" transform="translate(414,3)"/>
<path d="" fill="#27E9DA" transform="translate(0,0)"/>
<path d="M0 0 C2 1 2 1 2 1 Z " fill="#149FEE" transform="translate(14,162)"/>
<path d="M0 0 C2 1 2 1 2 1 Z " fill="#37ACD3" transform="translate(12,161)"/>
<path d="" fill="#1DEDFF" transform="translate(0,0)"/>
<path d="" fill="#14E4FF" transform="translate(0,0)"/>
<path d="" fill="#008FF7" transform="translate(0,0)"/>
<path d="" fill="#14AFF1" transform="translate(0,0)"/>
<path d="" fill="#1CC3FD" transform="translate(0,0)"/>
<path d="" fill="#1F98EB" transform="translate(0,0)"/>
<path d="" fill="#21BCFF" transform="translate(0,0)"/>
<path d="" fill="#0794F9" transform="translate(0,0)"/>
<path d="" fill="#3ABFF9" transform="translate(0,0)"/>
<path d="" fill="#0E8FD7" transform="translate(0,0)"/>
<path d="" fill="#0A87EA" transform="translate(0,0)"/>
<path d="" fill="#0B6DC9" transform="translate(0,0)"/>
<path d="M0 0 C2 1 2 1 2 1 Z " fill="#10C5E8" transform="translate(352,128)"/>
<path d="M0 0 C2 1 2 1 2 1 Z " fill="#0DA6F6" transform="translate(312,128)"/>
<path d="M0 0 C2 1 2 1 2 1 Z " fill="#0094F4" transform="translate(29,128)"/>
<path d="" fill="#06B9ED" transform="translate(0,0)"/>
<path d="" fill="#0759EC" transform="translate(0,0)"/>
<path d="" fill="#22AEE1" transform="translate(0,0)"/>
<path d="" fill="#0D8CED" transform="translate(0,0)"/>
<path d="" fill="#24C7FC" transform="translate(0,0)"/>
<path d="" fill="#21B0E7" transform="translate(0,0)"/>
<path d="" fill="#2BC1EA" transform="translate(0,0)"/>
<path d="" fill="#21CAFE" transform="translate(0,0)"/>
<path d="" fill="#1EB0E4" transform="translate(0,0)"/>
<path d="" fill="#1DC1F7" transform="translate(0,0)"/>
<path d="" fill="#1BB4F8" transform="translate(0,0)"/>
<path d="" fill="#0F9AE8" transform="translate(0,0)"/>
<path d="" fill="#124EC0" transform="translate(0,0)"/>
<path d="" fill="#0477C5" transform="translate(0,0)"/>
<path d="" fill="#0EC1FB" transform="translate(0,0)"/>
<path d="" fill="#08CCFE" transform="translate(0,0)"/>
<path d="" fill="#1B6ADA" transform="translate(0,0)"/>
<path d="" fill="#23C0FD" transform="translate(0,0)"/>
<path d="" fill="#38BCF5" transform="translate(0,0)"/>
<path d="" fill="#20ADE5" transform="translate(0,0)"/>
<path d="" fill="#2190E1" transform="translate(0,0)"/>
<path d="" fill="#1493D8" transform="translate(0,0)"/>
<path d="" fill="#22BCFD" transform="translate(0,0)"/>
<path d="" fill="#049CFA" transform="translate(0,0)"/>
<path d="" fill="#33C5ED" transform="translate(0,0)"/>
<path d="" fill="#21BBEE" transform="translate(0,0)"/>
<path d="" fill="#2AB9F5" transform="translate(0,0)"/>
<path d="" fill="#20C0F3" transform="translate(0,0)"/>
<path d="" fill="#1BE6FF" transform="translate(0,0)"/>
<path d="" fill="#029CF4" transform="translate(0,0)"/>
<path d="" fill="#07D4F6" transform="translate(0,0)"/>
<path d="" fill="#20BEE0" transform="translate(0,0)"/>
<path d="" fill="#1B90DF" transform="translate(0,0)"/>
<path d="" fill="#2592DD" transform="translate(0,0)"/>
<path d="" fill="#1C8CE2" transform="translate(0,0)"/>
<path d="" fill="#2292F8" transform="translate(0,0)"/>
<path d="" fill="#2BA9E2" transform="translate(0,0)"/>
<path d="" fill="#21BDE4" transform="translate(0,0)"/>
<path d="" fill="#0A99FB" transform="translate(0,0)"/>
<path d="" fill="#019EFA" transform="translate(0,0)"/>
<path d="" fill="#07A5F8" transform="translate(0,0)"/>
<path d="" fill="#22BFF3" transform="translate(0,0)"/>
<path d="" fill="#0399E4" transform="translate(0,0)"/>
<path d="" fill="#30BBF1" transform="translate(0,0)"/>
<path d="" fill="#0095FF" transform="translate(0,0)"/>
<path d="" fill="#1595DD" transform="translate(0,0)"/>
<path d="" fill="#37B3FF" transform="translate(0,0)"/>
<path d="" fill="#38B2FF" transform="translate(0,0)"/>
<path d="" fill="#0194DF" transform="translate(0,0)"/>
<path d="" fill="#20C2FC" transform="translate(0,0)"/>
<path d="" fill="#0BCEF4" transform="translate(0,0)"/>
<path d="" fill="#25EDFF" transform="translate(0,0)"/>
<path d="" fill="#26B9F2" transform="translate(0,0)"/>
<path d="" fill="#0592F9" transform="translate(0,0)"/>
<path d="" fill="#22B2F2" transform="translate(0,0)"/>
<path d="" fill="#0C6BCA" transform="translate(0,0)"/>
<path d="" fill="#19AFE3" transform="translate(0,0)"/>
<path d="" fill="#24A9F1" transform="translate(0,0)"/>
<path d="" fill="#0871CD" transform="translate(0,0)"/>
<path d="" fill="#0045E7" transform="translate(0,0)"/>
<path d="" fill="#09CAFA" transform="translate(0,0)"/>
<path d="" fill="#16ACE4" transform="translate(0,0)"/>
<path d="" fill="#1EA1E3" transform="translate(0,0)"/>
<path d="" fill="#1388EE" transform="translate(0,0)"/>
<path d="" fill="#34B3FF" transform="translate(0,0)"/>
<path d="" fill="#08D0F7" transform="translate(0,0)"/>
<path d="" fill="#0066C4" transform="translate(0,0)"/>
<path d="" fill="#17B0F4" transform="translate(0,0)"/>
<path d="" fill="#24B4F2" transform="translate(0,0)"/>
<path d="M0 0 C2 1 2 1 2 1 Z " fill="#21AEDD" transform="translate(410,5)"/>
<path d="M0 0 C2 1 2 1 2 1 Z " fill="#16B2DF" transform="translate(465,4)"/>
<path d="M0 0 C2 1 2 1 2 1 Z " fill="#209FDC" transform="translate(412,4)"/>
<path d="M0 0 C2 1 2 1 2 1 Z " fill="#076CC6" transform="translate(494,3)"/>
<path d="" fill="#008AF4" transform="translate(0,0)"/>
<path d="" fill="#00A5FF" transform="translate(0,0)"/>
<path d="" fill="#1CAEFF" transform="translate(0,0)"/>
<path d="" fill="#15A5E6" transform="translate(0,0)"/>
<path d="" fill="#099DFF" transform="translate(0,0)"/>
<path d="" fill="#16A6E5" transform="translate(0,0)"/>
<path d="" fill="#0A80CC" transform="translate(0,0)"/>
<path d="" fill="#179DFF" transform="translate(0,0)"/>
<path d="" fill="#0FAEDC" transform="translate(0,0)"/>
<path d="" fill="#0487D4" transform="translate(0,0)"/>
<path d="" fill="#0183FF" transform="translate(0,0)"/>
<path d="" fill="#39DFFF" transform="translate(0,0)"/>
<path d="" fill="#09ABF9" transform="translate(0,0)"/>
<path d="" fill="#00A6EE" transform="translate(0,0)"/>
<path d="" fill="#13A9FF" transform="translate(0,0)"/>
<path d="" fill="#0CA7DC" transform="translate(0,0)"/>
<path d="" fill="#159AEC" transform="translate(0,0)"/>
<path d="" fill="#1CA5E8" transform="translate(0,0)"/>
<path d="" fill="#0CA8DA" transform="translate(0,0)"/>
<path d="" fill="#0B87D6" transform="translate(0,0)"/>
<path d="" fill="#0BA2E5" transform="translate(0,0)"/>
<path d="" fill="#2BA7F5" transform="translate(0,0)"/>
<path d="" fill="#0CA3E5" transform="translate(0,0)"/>
<path d="" fill="#10ABDD" transform="translate(0,0)"/>
<path d="" fill="#02ABF8" transform="translate(0,0)"/>
<path d="" fill="#0BAFF3" transform="translate(0,0)"/>
<path d="" fill="#00A5FF" transform="translate(0,0)"/>
<path d="" fill="#04A4F5" transform="translate(0,0)"/>
<path d="" fill="#35D8FF" transform="translate(0,0)"/>
<path d="" fill="#0187E9" transform="translate(0,0)"/>
<path d="" fill="#09ACF7" transform="translate(0,0)"/>
<path d="" fill="#00A5FF" transform="translate(0,0)"/>
<path d="" fill="#0586F7" transform="translate(0,0)"/>
<path d="" fill="#1B95DE" transform="translate(0,0)"/>
<path d="" fill="#00ACFB" transform="translate(0,0)"/>
<path d="" fill="#008EE2" transform="translate(0,0)"/>
<path d="" fill="#10A1F9" transform="translate(0,0)"/>
<path d="" fill="#159CE0" transform="translate(0,0)"/>
<path d="" fill="#0093DE" transform="translate(0,0)"/>
<path d="" fill="#0087E9" transform="translate(0,0)"/>
<path d="" fill="#05A9FC" transform="translate(0,0)"/>
<path d="" fill="#12A3E2" transform="translate(0,0)"/>
<path d="" fill="#00AEFB" transform="translate(0,0)"/>
<path d="" fill="#0EA1F8" transform="translate(0,0)"/>
<path d="" fill="#0478E5" transform="translate(0,0)"/>
<path d="" fill="#3EDAFF" transform="translate(0,0)"/>
<path d="" fill="#03B8F8" transform="translate(0,0)"/>
<path d="" fill="#07AFFF" transform="translate(0,0)"/>
<path d="" fill="#239CF0" transform="translate(0,0)"/>
<path d="" fill="#008BCD" transform="translate(0,0)"/>
<path d="" fill="#10EDFF" transform="translate(0,0)"/>
<path d="" fill="#0B8BD8" transform="translate(0,0)"/>
<path d="" fill="#0FA2EE" transform="translate(0,0)"/>
<path d="" fill="#2097E7" transform="translate(0,0)"/>
<path d="" fill="#06A0E0" transform="translate(0,0)"/>
<path d="" fill="#0E9FF7" transform="translate(0,0)"/>
<path d="" fill="#239FEB" transform="translate(0,0)"/>
<path d="" fill="#0985D2" transform="translate(0,0)"/>
<path d="" fill="#00B2F8" transform="translate(0,0)"/>
<path d="" fill="#11A3E6" transform="translate(0,0)"/>
<path d="" fill="#2DADFF" transform="translate(0,0)"/>
<path d="" fill="#24ADF3" transform="translate(0,0)"/>
<path d="" fill="#0283D0" transform="translate(0,0)"/>
<path d="" fill="#0093DC" transform="translate(0,0)"/>
<path d="" fill="#0092D8" transform="translate(0,0)"/>
<path d="" fill="#12B6EF" transform="translate(0,0)"/>
<path d="" fill="#0089EB" transform="translate(0,0)"/>
<path d="" fill="#08A5FD" transform="translate(0,0)"/>
<path d="" fill="#07B7F6" transform="translate(0,0)"/>
<path d="" fill="#0EB9FF" transform="translate(0,0)"/>
<path d="" fill="#0185F5" transform="translate(0,0)"/>
<path d="" fill="#00A8FC" transform="translate(0,0)"/>
<path d="" fill="#00A6EC" transform="translate(0,0)"/>
<path d="" fill="#03A6EF" transform="translate(0,0)"/>
<path d="" fill="#07B5F7" transform="translate(0,0)"/>
<path d="" fill="#1AA1EC" transform="translate(0,0)"/>
<path d="" fill="#1B79E2" transform="translate(0,0)"/>
<path d="" fill="#1C9BF2" transform="translate(0,0)"/>
<path d="" fill="#1288DE" transform="translate(0,0)"/>
<path d="" fill="#229AF1" transform="translate(0,0)"/>
<path d="" fill="#099BEE" transform="translate(0,0)"/>
<path d="" fill="#129FFF" transform="translate(0,0)"/>
<path d="" fill="#09BCFF" transform="translate(0,0)"/>
<path d="" fill="#0086FA" transform="translate(0,0)"/>
<path d="" fill="#008CE6" transform="translate(0,0)"/>
<path d="" fill="#1CAEFF" transform="translate(0,0)"/>
<path d="" fill="#01A6FF" transform="translate(0,0)"/>
<path d="" fill="#139ADA" transform="translate(0,0)"/>
<path d="" fill="#199BEF" transform="translate(0,0)"/>
<path d="" fill="#20ADF1" transform="translate(0,0)"/>
<path d="" fill="#00ACF2" transform="translate(0,0)"/>
<path d="" fill="#5CC8FF" transform="translate(0,0)"/>
<path d="" fill="#0BAAEF" transform="translate(0,0)"/>
<path d="" fill="#0B9EFA" transform="translate(0,0)"/>
<path d="" fill="#008BE4" transform="translate(0,0)"/>
<path d="" fill="#1AA5EA" transform="translate(0,0)"/>
<path d="" fill="#006DBA" transform="translate(0,0)"/>
<path d="" fill="#0FA6DA" transform="translate(0,0)"/>
<path d="" fill="#29AAF5" transform="translate(0,0)"/>
<path d="" fill="#23A6F2" transform="translate(0,0)"/>
<path d="" fill="#0CA6D7" transform="translate(0,0)"/>
<path d="" fill="#3ED3FF" transform="translate(0,0)"/>
<path d="" fill="#18A2EC" transform="translate(0,0)"/>
<path d="" fill="#0093C7" transform="translate(0,0)"/>
<path d="" fill="#0092CD" transform="translate(0,0)"/>
<path d="" fill="#3BD7FF" transform="translate(0,0)"/>
<path d="" fill="#31A8FB" transform="translate(0,0)"/>
<path d="" fill="#4EC8FF" transform="translate(0,0)"/>
<path d="" fill="#1597DD" transform="translate(0,0)"/>
<path d="" fill="#168AE0" transform="translate(0,0)"/>
<path d="" fill="#1A96E5" transform="translate(0,0)"/>
<path d="" fill="#117FDE" transform="translate(0,0)"/>
<path d="" fill="#1A99E4" transform="translate(0,0)"/>
<path d="" fill="#117FDE" transform="translate(0,0)"/>
<path d="" fill="#1AA0E7" transform="translate(0,0)"/>
<path d="" fill="#2497F0" transform="translate(0,0)"/>
<path d="" fill="#0F88E8" transform="translate(0,0)"/>
<path d="" fill="#00A4FE" transform="translate(0,0)"/>
<path d="" fill="#038CD0" transform="translate(0,0)"/>
<path d="" fill="#00A9FB" transform="translate(0,0)"/>
<path d="" fill="#00A4E9" transform="translate(0,0)"/>
<path d="" fill="#19A4E9" transform="translate(0,0)"/>
<path d="" fill="#19A4E9" transform="translate(0,0)"/>
<path d="" fill="#06A6E9" transform="translate(0,0)"/>
<path d="" fill="#1D9FF0" transform="translate(0,0)"/>
<path d="" fill="#119BE5" transform="translate(0,0)"/>
<path d="" fill="#1592E8" transform="translate(0,0)"/>
<path d="" fill="#14A5E1" transform="translate(0,0)"/>
<path d="" fill="#14A1E6" transform="translate(0,0)"/>
<path d="" fill="#17A8E4" transform="translate(0,0)"/>
<path d="" fill="#287BF3" transform="translate(0,0)"/>
<path d="" fill="#08A6F9" transform="translate(0,0)"/>
<path d="" fill="#1F9CF1" transform="translate(0,0)"/>
<path d="" fill="#3BD9FC" transform="translate(0,0)"/>
<path d="" fill="#12AEDB" transform="translate(0,0)"/>
<path d="" fill="#23A5E9" transform="translate(0,0)"/>
<path d="" fill="#22A4E8" transform="translate(0,0)"/>
<path d="" fill="#1F9BF5" transform="translate(0,0)"/>
</svg>
